<svg width="318" height="72" viewBox="0 0 318 72" fill="none" xmlns="http://www.w3.org/2000/svg">
<path d="M66.98 48.5856C70.6088 52.2144 75.908 54.6912 83.2808 54.6912C93.6488 54.6912 98.66 49.392 98.66 42.3648C98.66 33.84 90.596 31.9392 84.26 30.4992C79.8248 29.4624 76.5992 28.656 76.5992 26.064C76.5992 23.76 78.5576 22.1472 82.244 22.1472C85.988 22.1472 90.1352 23.472 93.2456 26.352L97.796 20.3616C93.9944 16.848 88.9256 15.0048 82.82 15.0048C73.7768 15.0048 68.2472 20.1888 68.2472 26.5824C68.2472 35.1648 76.3112 36.8928 82.5896 38.3328C87.0248 39.3696 90.3656 40.3488 90.3656 43.2288C90.3656 45.4176 88.1768 47.5488 83.684 47.5488C78.3848 47.5488 74.18 45.1872 71.4728 42.3648L66.98 48.5856ZM102.209 40.0608C102.209 48.9888 108.602 54.6912 117.07 54.6912C121.39 54.6912 125.71 53.424 128.532 50.832L125.306 46.1088C123.521 47.8368 120.468 48.8736 117.876 48.8736C113.153 48.8736 110.33 45.936 109.87 42.4224H130.548V40.8096C130.548 31.7088 124.903 25.488 116.609 25.488C108.142 25.488 102.209 31.9968 102.209 40.0608ZM116.609 31.3056C121.447 31.3056 123.29 34.8192 123.463 37.4688H109.754C110.1 34.704 112.058 31.3056 116.609 31.3056ZM135.832 54H143.147V35.6256C144.357 33.84 147.582 32.5152 150.001 32.5152C150.808 32.5152 151.499 32.5728 152.017 32.688V25.5456C148.561 25.5456 145.105 27.504 143.147 29.9808V26.1792H135.832V54ZM163.788 54H171.679L182.854 26.1792H174.962L167.705 45.5328L160.447 26.1792H152.614L163.788 54Z" fill="#136ACD"/>
<path d="M204.609 54.6912C213.364 54.6912 218.203 50.0256 220.967 45.2448L213.94 41.8464C212.327 45.0144 208.871 47.4336 204.609 47.4336C197.927 47.4336 192.859 42.0768 192.859 34.8192C192.859 27.5616 197.927 22.2048 204.609 22.2048C208.871 22.2048 212.327 24.6816 213.94 27.792L220.967 24.336C218.26 19.5552 213.364 14.9472 204.609 14.9472C193.377 14.9472 184.449 23.0112 184.449 34.8192C184.449 46.6272 193.377 54.6912 204.609 54.6912ZM225.663 54H232.978V35.6256C234.188 33.84 237.413 32.5152 239.833 32.5152C240.639 32.5152 241.33 32.5728 241.849 32.688V25.5456C238.393 25.5456 234.937 27.504 232.978 29.9808V26.1792H225.663V54ZM263.123 54H270.439V36.0288C270.439 28.0224 264.621 25.488 258.285 25.488C253.907 25.488 249.53 26.8704 246.131 29.8656L248.896 34.7616C251.258 32.5728 254.023 31.4784 257.018 31.4784C260.704 31.4784 263.123 33.3216 263.123 36.144V40.0032C261.28 37.7568 257.997 36.6048 254.311 36.6048C249.875 36.6048 244.634 38.9664 244.634 45.4752C244.634 51.696 249.875 54.6912 254.311 54.6912C257.939 54.6912 261.223 53.3664 263.123 51.12V54ZM263.123 47.3184C261.914 48.9312 259.61 49.7376 257.248 49.7376C254.368 49.7376 252.007 48.24 252.007 45.648C252.007 42.9984 254.368 41.4432 257.248 41.4432C259.61 41.4432 261.914 42.2496 263.123 43.8624V47.3184ZM279.307 54H286.68V32.5728H292.325V26.1792H286.68V24.7968C286.68 22.1472 288.062 20.7648 290.136 20.7648C291 20.7648 291.864 20.9376 292.498 21.3408L293.995 16.1568C292.67 15.4656 290.77 15.0048 288.696 15.0048C283.224 15.0048 279.307 18.6336 279.307 24.6816V26.1792H274.699V32.5728H279.307V54ZM305.869 54.6912C308.922 54.6912 310.88 53.8848 311.975 52.9056L310.42 47.376C310.016 47.7792 308.98 48.1824 307.885 48.1824C306.272 48.1824 305.351 46.8576 305.351 45.1296V32.5728H310.996V26.1792H305.351V18.576H297.978V26.1792H293.37V32.5728H297.978V47.088C297.978 52.0416 300.743 54.6912 305.869 54.6912Z" fill="#1C252C"/>
<path d="M39.3055 31.4528H36.7437C35.983 28.5067 34.4112 25.833 32.2069 23.7355C30.0025 21.6381 27.2541 20.201 24.2738 19.5875C21.2936 18.9741 18.201 19.2089 15.3475 20.2653C12.494 21.3216 9.99399 23.1572 8.13159 25.5634C6.26919 27.9696 5.11906 30.8499 4.81187 33.8771C4.50469 36.9043 5.05277 39.957 6.39385 42.6883C7.73493 45.4196 9.81522 47.7199 12.3984 49.328C14.9815 50.936 17.9639 51.7872 21.0066 51.785H39.3055C42.0018 51.785 44.5875 50.7139 46.494 48.8074C48.4005 46.9009 49.4716 44.3151 49.4716 41.6189C49.4716 38.9227 48.4005 36.3369 46.494 34.4304C44.5875 32.5239 42.0018 31.4528 39.3055 31.4528Z" fill="#136ACD" stroke="#136ACD" stroke-width="7.83" stroke-linecap="round" stroke-linejoin="round"/>
<mask id="mask0" mask-type="alpha" maskUnits="userSpaceOnUse" x="5" y="19" width="45" height="33">
<path d="M39.1009 31.4561H36.582C35.8341 28.5092 34.2886 25.8348 32.1213 23.7368C29.9539 21.6387 27.2516 20.2013 24.3213 19.5876C21.391 18.974 18.3503 19.2089 15.5446 20.2655C12.739 21.3222 10.2809 23.1582 8.44977 25.5651C6.6186 27.9719 5.48775 30.8531 5.18572 33.8811C4.88369 36.9091 5.42258 39.9626 6.74117 42.6946C8.05976 45.4267 10.1052 47.7276 12.645 49.3361C15.1848 50.9446 18.1171 51.7961 21.1089 51.7938H39.1009C41.7519 51.7938 44.2943 50.7224 46.1688 48.8154C48.0434 46.9084 49.0965 44.3219 49.0965 41.625C49.0965 38.928 48.0434 36.3415 46.1688 34.4345C44.2943 32.5275 41.7519 31.4561 39.1009 31.4561Z" fill="#136ACD"/>
</mask>
<g mask="url(#mask0)">
<g filter="url(#filter0_d)">
<path d="M-25.7773 22.258L-23.4964 21.2076C-21.2155 20.0779 -16.6536 18.0961 -12.0918 20.1374C-7.52994 22.258 -2.96809 28.6001 1.59376 32.8215C6.15561 37.1222 10.7175 39.104 15.2793 40.2337C19.8412 41.2841 24.403 41.2841 28.9649 39.1635C33.5267 37.1222 38.0886 32.762 42.6504 32.8215C47.2123 32.762 51.7741 37.1222 54.0551 39.1635L56.336 41.2841V60.3102H54.0551C51.7741 60.3102 47.2123 60.3102 42.6504 60.3102C38.0886 60.3102 33.5267 60.3102 28.9649 60.3102C24.403 60.3102 19.8412 60.3102 15.2793 60.3102C10.7175 60.3102 6.15561 60.3102 1.59376 60.3102C-2.96809 60.3102 -7.52994 60.3102 -12.0918 60.3102C-16.6536 60.3102 -21.2155 60.3102 -23.4964 60.3102H-25.7773V22.258Z" fill="#167DF2"/>
</g>
<g opacity="0.8" filter="url(#filter1_d)">
<path d="M-25.7776 28.7405L-23.4967 27.6901C-21.2157 26.5604 -16.6539 24.5785 -12.092 26.6199C-7.53018 28.7405 -2.96833 35.0825 1.59352 39.3039C6.15537 43.6046 10.7172 45.5865 15.2791 46.7162C19.8409 47.7666 24.4028 47.7666 28.9646 45.646C33.5265 43.6046 38.0883 39.2445 42.6502 39.3039C47.212 39.2445 51.7739 43.6046 54.0548 45.646L56.3357 47.7666V66.7927H54.0548C51.7739 66.7927 47.212 66.7927 42.6502 66.7927C38.0883 66.7927 33.5265 66.7927 28.9646 66.7927C24.4028 66.7927 19.8409 66.7927 15.2791 66.7927C10.7172 66.7927 6.15537 66.7927 1.59352 66.7927C-2.96833 66.7927 -7.53018 66.7927 -12.092 66.7927C-16.6539 66.7927 -21.2157 66.7927 -23.4967 66.7927H-25.7776V28.7405Z" fill="#2E8FFF"/>
</g>
</g>
<defs>
<filter id="filter0_d" x="-29.0398" y="15.991" width="88.6383" height="47.5817" filterUnits="userSpaceOnUse" color-interpolation-filters="sRGB">
<feFlood flood-opacity="0" result="BackgroundImageFix"/>
<feColorMatrix in="SourceAlpha" type="matrix" values="0 0 0 0 0 0 0 0 0 0 0 0 0 0 0 0 0 0 127 0"/>
<feOffset/>
<feGaussianBlur stdDeviation="1.63125"/>
<feColorMatrix type="matrix" values="0 0 0 0 0 0 0 0 0 0 0 0 0 0 0 0 0 0 0.25 0"/>
<feBlend mode="normal" in2="BackgroundImageFix" result="effect1_dropShadow"/>
<feBlend mode="normal" in="SourceGraphic" in2="effect1_dropShadow" result="shape"/>
</filter>
<filter id="filter1_d" x="-32.3026" y="14.3173" width="95.1633" height="54.1067" filterUnits="userSpaceOnUse" color-interpolation-filters="sRGB">
<feFlood flood-opacity="0" result="BackgroundImageFix"/>
<feColorMatrix in="SourceAlpha" type="matrix" values="0 0 0 0 0 0 0 0 0 0 0 0 0 0 0 0 0 0 127 0"/>
<feOffset dy="-4.89375"/>
<feGaussianBlur stdDeviation="3.2625"/>
<feColorMatrix type="matrix" values="0 0 0 0 0 0 0 0 0 0 0 0 0 0 0 0 0 0 0.15 0"/>
<feBlend mode="normal" in2="BackgroundImageFix" result="effect1_dropShadow"/>
<feBlend mode="normal" in="SourceGraphic" in2="effect1_dropShadow" result="shape"/>
</filter>
</defs>
</svg>
